<svg width="109" height="100" viewBox="0 0 109 100" fill="none" xmlns="http://www.w3.org/2000/svg">
<g opacity="0.59">
<path d="M83.17 22L77.64 25.81L68.8 31.89L64.76 34.67L51.49 43.8L51.44 43.83L47.91 46.26C47.58 46.49 47.23 46.67 46.88 46.82C46.73 46.89 46.57 46.94 46.41 46.99C44.16 47.69 41.63 46.88 40.22 44.84L37.75 41.25L37.72 41.2L28.59 27.93L25.81 23.89L19.73 15.05L15.96 9.56999C13.82 6.44999 15.39 2.54999 18.42 1.30999C18.57 1.23999 18.73 1.18999 18.88 1.13999C18.97 1.10999 19.05 1.08999 19.14 1.06999C19.89 0.879989 20.71 0.839989 21.56 1.00999L51.21 6.80999L80.97 12C85.84 12.85 87.23 19.19 83.15 22H83.17Z" fill="url(#paint0_linear_1_1199)"/>
<path d="M43.74 47.32C42.29 47.05 40.96 46.22 40.08 44.94L15.82 9.68C14.82 8.22 14.54 6.51 15.04 4.85C15.54 3.18 16.78 1.79 18.37 1.15C18.51 1.09 18.67 1.03 18.85 0.980003C18.94 0.950003 19.03 0.930003 19.12 0.910003C19.93 0.700003 20.76 0.670003 21.62 0.850003L51.27 6.65L81.02 11.84C81.02 11.84 81.06 11.84 81.08 11.85C83.38 12.28 85.12 13.96 85.62 16.25C86.12 18.56 85.23 20.83 83.28 22.17L48.02 46.42C47.69 46.65 47.33 46.84 46.96 46.99C46.8 47.06 46.64 47.12 46.48 47.17C45.57 47.45 44.63 47.5 43.74 47.33V47.32ZM21.48 1.18C20.71 1.04 19.95 1.06 19.21 1.25C19.12 1.27 19.04 1.29 18.95 1.32C18.79 1.37 18.64 1.42 18.51 1.48C17.02 2.09 15.86 3.38 15.39 4.95C14.93 6.5 15.19 8.1 16.12 9.47L40.38 44.73C41.71 46.67 44.12 47.5 46.36 46.81C46.51 46.76 46.66 46.71 46.81 46.64C47.16 46.5 47.5 46.32 47.8 46.1L83.06 21.85C84.88 20.6 85.72 18.47 85.25 16.31C84.78 14.15 83.13 12.57 80.95 12.19L51.19 7L21.54 1.2C21.54 1.2 21.49 1.2 21.47 1.19L21.48 1.18Z" fill="white"/>
</g>
<g opacity="0.59">
<path d="M68.7899 97.53C68.7099 97.57 68.6399 97.61 68.5599 97.64C68.4699 97.68 68.3899 97.72 68.2999 97.75C68.2199 97.78 68.1499 97.81 68.0699 97.84C67.9899 97.87 67.9099 97.89 67.8299 97.92C67.0399 98.16 66.1599 98.21 65.2399 98.04L35.3899 92.46L5.51993 86.99C0.669933 86.1 -0.670063 79.79 3.37994 77L17.8899 67.02L25.3499 61.89L38.6699 52.73L38.7699 52.66C39.0799 52.44 39.4099 52.27 39.7499 52.12C39.8999 52.05 40.0599 52 40.2199 51.95C40.3099 51.92 40.3899 51.9 40.4799 51.87C40.5699 51.84 40.6499 51.82 40.7399 51.81C42.8599 51.35 45.1499 52.18 46.4499 54.08L46.4899 54.13L55.6499 67.45L60.7799 74.91L70.7999 89.47C72.8299 92.43 71.5199 96.1 68.7799 97.52L68.7899 97.53Z" fill="url(#paint1_linear_1_1199)"/>
<path d="M5.48 87.17C3.17 86.74 1.43 85.05 0.929996 82.75C0.439996 80.45 1.33999 78.19 3.27999 76.85L38.67 52.51C38.99 52.29 39.33 52.11 39.68 51.95C39.84 51.88 40 51.82 40.16 51.77L40.43 51.69C40.52 51.66 40.62 51.64 40.71 51.62C42.97 51.13 45.29 52.05 46.6 53.96L70.94 89.35C71.88 90.72 72.19 92.35 71.79 93.93C71.39 95.55 70.32 96.91 68.85 97.67C68.77 97.71 68.69 97.75 68.61 97.79C68.53 97.83 68.44 97.87 68.35 97.91C68.26 97.94 68.19 97.97 68.12 98C68.03 98.03 67.95 98.06 67.87 98.08C67.02 98.33 66.12 98.38 65.2 98.2L35.35 92.62L5.48 87.15V87.17ZM42.9 51.96C42.22 51.83 41.5 51.84 40.79 51.99C40.7 52 40.62 52.02 40.54 52.05L40.28 52.13C40.13 52.18 39.98 52.23 39.83 52.29C39.5 52.43 39.18 52.61 38.88 52.81L3.49 77.15C1.68 78.4 0.829995 80.51 1.29999 82.67C1.75999 84.82 3.39 86.41 5.55 86.81L35.42 92.28L65.27 97.86C66.14 98.02 66.98 97.98 67.77 97.74C67.85 97.72 67.92 97.69 68 97.67C68.07 97.65 68.14 97.62 68.21 97.59C68.3 97.55 68.38 97.52 68.47 97.48C68.55 97.44 68.62 97.41 68.7 97.37C70.05 96.67 71.07 95.36 71.45 93.87C71.82 92.39 71.54 90.87 70.65 89.59L46.3 54.2C45.48 53.01 44.24 52.23 42.88 51.98L42.9 51.96Z" fill="white"/>
</g>
<g style="mix-blend-mode:overlay">
<path d="M43.71 47.32C42.25 47.05 40.9 46.22 40.03 44.94L25.53 23.86L48.17 8.28999C49.9 7.09999 52.29 7.53999 53.48 9.26999L69.05 31.91L68.9 32.02L48.01 46.39C47.68 46.62 47.32 46.81 46.95 46.96C46.79 47.03 46.63 47.09 46.47 47.14C45.56 47.43 44.61 47.48 43.71 47.31V47.32ZM26.04 23.97L40.33 44.74C41.66 46.67 44.13 47.52 46.36 46.8C46.51 46.75 46.66 46.7 46.81 46.63C47.16 46.49 47.5 46.31 47.8 46.09L68.54 31.83L53.17 9.48999C52.09 7.91999 49.94 7.51999 48.37 8.59999L26.03 23.96L26.04 23.97Z" fill="white"/>
<path d="M35.6 91.11C34.64 90.93 33.74 90.39 33.15 89.52L17.74 67.12L17.67 66.95L38.63 52.53C38.96 52.3 39.32 52.11 39.69 51.96C39.85 51.89 40.01 51.83 40.17 51.78L40.44 51.7C40.53 51.67 40.63 51.65 40.72 51.63C40.8 51.61 40.9 51.59 40.99 51.58C43.16 51.22 45.36 52.16 46.61 53.98L61.04 74.96L38.45 90.5C37.58 91.1 36.55 91.28 35.59 91.11H35.6ZM18.15 67.06L33.45 89.31C34.53 90.88 36.68 91.28 38.25 90.2L60.53 74.87L46.31 54.19C45.14 52.49 43.08 51.61 41.05 51.95C40.96 51.96 40.87 51.98 40.79 52C40.7 52.01 40.62 52.04 40.54 52.06L40.28 52.14C40.13 52.19 39.98 52.24 39.83 52.3C39.48 52.45 39.14 52.63 38.84 52.84L38.78 52.88L18.15 67.07V67.06Z" fill="white"/>
<path d="M42.0901 56.03C41.0901 55.84 40.2201 55.28 39.6401 54.44L38.5101 52.8L38.4501 52.66L38.6301 52.52C38.9601 52.29 39.3201 52.1 39.6901 51.95C39.8501 51.88 40.0101 51.82 40.1701 51.77L40.4401 51.69C40.5301 51.66 40.6301 51.64 40.7201 51.62C42.9801 51.13 45.3001 52.05 46.6101 53.96L46.7501 54.17L46.5401 54.3L44.9301 55.41C44.0901 55.99 43.0701 56.21 42.0701 56.02L42.0901 56.03ZM38.9301 52.77L39.9401 54.23C40.4601 54.99 41.2501 55.5 42.1601 55.67C43.0701 55.84 43.9801 55.64 44.7401 55.12L46.2501 54.08C45.0101 52.36 42.8801 51.54 40.8001 51.99C40.7101 52 40.6301 52.02 40.5501 52.05L40.2901 52.13C40.1401 52.18 39.9901 52.23 39.8401 52.29C39.5201 52.42 39.2201 52.58 38.9301 52.77Z" fill="white"/>
<path d="M43.71 47.32C42.25 47.05 40.9 46.22 40.03 44.94L28.3 27.9L28.49 27.77L46.9 15.11C48.63 13.92 51.02 14.36 52.21 16.09L65.01 34.69L64.86 34.8L48.01 46.39C47.68 46.62 47.32 46.81 46.95 46.96C46.79 47.03 46.63 47.09 46.47 47.14C45.56 47.43 44.61 47.48 43.71 47.31V47.32ZM28.82 28L40.34 44.74C41.67 46.67 44.14 47.52 46.37 46.8C46.52 46.75 46.67 46.7 46.82 46.63C47.17 46.49 47.51 46.31 47.81 46.09L64.51 34.6L51.92 16.29C50.84 14.72 48.69 14.32 47.12 15.4L28.82 27.99V28Z" fill="white"/>
<path d="M43.7101 47.32C42.2501 47.05 40.9001 46.22 40.0301 44.94L37.4601 41.21L37.6601 41.08L42.7501 37.58C43.5901 37 44.6001 36.79 45.6101 36.97C46.6201 37.15 47.4801 37.72 48.0601 38.56L51.7001 43.85L51.5501 43.96L48.0201 46.39C47.6901 46.62 47.3301 46.81 46.9601 46.96C46.8001 47.03 46.6401 47.09 46.4801 47.14C45.5701 47.43 44.6201 47.48 43.7201 47.31L43.7101 47.32ZM37.9801 41.32L40.3401 44.74C41.6701 46.67 44.1401 47.52 46.3701 46.8C46.5201 46.75 46.6701 46.7 46.8201 46.63C47.1701 46.49 47.5101 46.31 47.8101 46.09L51.1901 43.76L47.7601 38.77C47.2401 38.01 46.4501 37.5 45.5401 37.33C44.6301 37.16 43.7201 37.36 42.9601 37.88L37.9801 41.31V41.32Z" fill="white"/>
<path d="M37.9301 78.51C36.9301 78.32 36.0601 77.76 35.4801 76.92L25.1101 61.85L25.2501 61.73L38.6301 52.53C38.9601 52.3 39.3201 52.11 39.6901 51.96C39.8501 51.89 40.0101 51.83 40.1701 51.78L40.4401 51.7C40.5301 51.67 40.6301 51.65 40.7201 51.63C40.8001 51.61 40.9001 51.59 40.9901 51.58C43.1601 51.22 45.3601 52.16 46.6101 53.98L55.9101 67.5L55.7201 67.63L40.7801 77.9C39.9401 78.48 38.9201 78.7 37.9201 78.51H37.9301ZM25.6101 61.93L35.7801 76.71C36.3001 77.47 37.0901 77.98 38.0001 78.15C38.9101 78.32 39.8201 78.12 40.5801 77.6L55.4001 67.41L46.3101 54.19C45.1401 52.49 43.0801 51.61 41.0501 51.95C40.9601 51.96 40.8701 51.98 40.7901 52C40.7001 52.01 40.6201 52.04 40.5401 52.06L40.2801 52.14C40.1301 52.19 39.9801 52.24 39.8301 52.3C39.4801 52.45 39.1401 52.63 38.8401 52.84L38.7801 52.88L25.6101 61.93Z" fill="white"/>
<path d="M51.4801 44.02L51.3401 43.88L47.8101 38.75C47.2301 37.91 47.0101 36.9 47.2001 35.9C47.3801 34.9 47.9501 34.02 48.7901 33.44L68.9401 19.58C69.7801 19 70.8001 18.78 71.8001 18.97C72.8001 19.16 73.6701 19.72 74.2501 20.56L77.8901 25.85L77.7401 25.96L51.4801 44.03V44.02ZM71.7401 19.32C70.8301 19.15 69.9201 19.35 69.1601 19.87L49.0101 33.73C48.2501 34.25 47.7401 35.04 47.5701 35.95C47.4001 36.86 47.6001 37.77 48.1201 38.53L51.5501 43.52L77.3901 25.74L73.9601 20.75C73.4401 19.99 72.6501 19.48 71.7501 19.31L71.7401 19.32Z" fill="white"/>
<path d="M37.6501 41.49L19.4601 15.04L19.6401 14.9L24.7401 11.39C25.5801 10.81 26.5901 10.59 27.6001 10.78C28.6001 10.97 29.4701 11.53 30.0501 12.37L43.9101 32.52C44.4901 33.36 44.7101 34.38 44.5201 35.38C44.3301 36.38 43.7701 37.25 42.9301 37.83L37.6501 41.48V41.49ZM19.9601 15.13L37.7401 40.97L42.7201 37.54C43.4801 37.02 43.9901 36.23 44.1601 35.33C44.3301 34.42 44.1301 33.5 43.6101 32.74L29.7501 12.59C29.2301 11.83 28.4401 11.32 27.5301 11.15C26.6201 10.98 25.7101 11.18 24.9501 11.7L19.9701 15.13H19.9601Z" fill="white"/>
</g>
<path d="M43.58 48.05C41.93 47.74 40.41 46.81 39.42 45.37L15.16 10.11C14.02 8.45001 13.71 6.50001 14.29 4.62001C14.86 2.73001 16.29 1.17001 18.09 0.460011C18.24 0.390011 18.43 0.330011 18.64 0.270011C18.74 0.240011 18.85 0.210011 18.95 0.190011C19.03 0.170011 19.15 0.140011 19.27 0.120011C20.06 -0.0299892 20.88 -0.0199892 21.7 0.140011L51.35 5.94001L81.09 11.13C81.09 11.13 81.13 11.13 81.16 11.14C83.76 11.62 85.72 13.52 86.28 16.1C86.85 18.71 85.84 21.27 83.64 22.79L48.38 47.04C48.02 47.28 47.64 47.5 47.24 47.67C47.06 47.74 46.88 47.81 46.69 47.87C45.66 48.2 44.59 48.25 43.57 48.07L43.58 48.05ZM38.49 40.77L40.94 44.33C42.08 45.99 44.22 46.72 46.14 46.11C46.27 46.07 46.4 46.02 46.53 45.97C46.81 45.85 47.09 45.7 47.34 45.52L82.6 21.27C84.48 19.98 84.81 17.95 84.49 16.49C84.17 15.04 83.05 13.35 80.83 12.95C80.81 12.95 80.8 12.95 80.78 12.95L51.02 7.76001L21.35 1.96001C20.75 1.84001 20.16 1.84001 19.6 1.94001C19.53 1.95001 19.46 1.97001 19.4 1.98001C19.29 2.01001 19.22 2.03001 19.15 2.05001C19.02 2.09001 18.9 2.13001 18.8 2.17001C17.48 2.69001 16.47 3.81001 16.05 5.17001C15.64 6.51001 15.87 7.90001 16.68 9.08001L38.49 40.78V40.77Z" fill="white"/>
<path d="M65.03 98.96L35.18 93.38L5.31002 87.91H5.30003C2.69003 87.43 0.720024 85.51 0.170024 82.92C-0.389976 80.32 0.630025 77.77 2.82003 76.26L38.22 51.91C38.59 51.66 38.99 51.44 39.42 51.26C39.59 51.19 39.77 51.12 39.96 51.06L40.25 50.98C40.33 50.96 40.45 50.92 40.59 50.9C40.7 50.88 40.8 50.86 40.91 50.84C43.34 50.47 45.81 51.54 47.19 53.57L47.23 53.63L71.54 88.96C72.56 90.44 72.91 92.19 72.55 93.91C72.18 95.66 71.09 97.21 69.57 98.14C69.46 98.21 69.35 98.27 69.23 98.33C69.14 98.38 69.06 98.42 68.97 98.46C68.86 98.51 68.76 98.56 68.65 98.6C68.56 98.64 68.48 98.67 68.4 98.7C68.28 98.74 68.19 98.77 68.1 98.79C67.13 99.09 66.1 99.14 65.04 98.95L65.03 98.96ZM42.69 52.7C42.19 52.61 41.68 52.6 41.17 52.67C41.1 52.68 41.03 52.69 40.97 52.71H40.9C40.9 52.71 40.8 52.74 40.75 52.76L40.49 52.83C40.38 52.86 40.25 52.91 40.12 52.97C39.81 53.1 39.52 53.25 39.26 53.43L39.2 53.47L3.87002 77.77C2.00002 79.06 1.67003 81.07 1.98003 82.53C2.29003 83.98 3.42003 85.68 5.65003 86.1L35.52 91.57L65.37 97.15C66.13 97.29 66.87 97.25 67.57 97.04C67.65 97.02 67.72 96.99 67.79 96.97C67.83 96.95 67.89 96.93 67.96 96.91C68.04 96.88 68.1 96.85 68.16 96.82L68.2 96.8C68.26 96.77 68.31 96.74 68.37 96.71C68.45 96.67 68.52 96.63 68.59 96.58C69.68 95.9 70.47 94.79 70.73 93.53C70.91 92.67 70.93 91.36 70 90.01L45.65 54.62C44.95 53.6 43.86 52.92 42.67 52.7H42.69Z" fill="white"/>
<path d="M103.4 22.25L101.06 18.1H98.15V22.25H97.84V13.18H100.47C102.72 13.18 103.34 14.14 103.34 15.48C103.34 16.96 102.58 17.8 101.39 18.05L103.79 22.25H103.4ZM102.99 15.5C102.99 13.82 101.86 13.48 100.26 13.48H98.16V17.8H100.5C102.02 17.8 102.99 17.19 102.99 15.5Z" fill="white"/>
<path d="M100.13 25.87C95.72 25.87 92.13 22.28 92.13 17.87C92.13 13.46 95.72 9.87 100.13 9.87C104.54 9.87 108.13 13.46 108.13 17.87C108.13 22.28 104.54 25.87 100.13 25.87ZM100.13 10.22C95.91 10.22 92.48 13.65 92.48 17.87C92.48 22.09 95.91 25.52 100.13 25.52C104.35 25.52 107.78 22.09 107.78 17.87C107.78 13.65 104.35 10.22 100.13 10.22Z" fill="white"/>
<defs>
<linearGradient id="paint0_linear_1_1199" x1="12.3344" y1="20.3124" x2="82.7302" y2="33.334" gradientUnits="userSpaceOnUse">
<stop stop-color="#FF159E"/>
<stop offset="1" stop-color="#FF155D"/>
</linearGradient>
<linearGradient id="paint1_linear_1_1199" x1="3.83112" y1="65.6215" x2="74.4531" y2="78.685" gradientUnits="userSpaceOnUse">
<stop stop-color="#15FFDB"/>
<stop offset="1" stop-color="#55D6FF"/>
</linearGradient>
</defs>
</svg>
