<svg width="21" height="19" viewBox="0 0 21 19" fill="none" xmlns="http://www.w3.org/2000/svg">
<g opacity="0.3">
<path d="M20.0555 11.7842H16.0248C14.5449 11.7833 13.3453 10.644 13.3444 9.23734C13.3444 7.83067 14.5449 6.69135 16.0248 6.69049H20.0555" stroke="black" stroke-width="1.5" stroke-linecap="round" stroke-linejoin="round"/>
<path d="M16.4808 9.17908H16.1705" stroke="black" stroke-width="1.5" stroke-linecap="round" stroke-linejoin="round"/>
<path d="M16.3103 9H16" stroke="black" stroke-width="1.5" stroke-linecap="round" stroke-linejoin="round"/>
<path d="M6.31033 14H6" stroke="black" stroke-width="1.5" stroke-linecap="round" stroke-linejoin="round"/>
<path d="M9.31033 14H9" stroke="black" stroke-width="1.5" stroke-linecap="round" stroke-linejoin="round"/>
<path fill-rule="evenodd" clip-rule="evenodd" d="M6.22478 1H14.8305C17.716 1 20.0553 3.22343 20.0553 5.96606V12.758C20.0553 15.5006 17.716 17.724 14.8305 17.724H6.22478C3.33926 17.724 1 15.5006 1 12.758V5.96606C1 3.22343 3.33926 1 6.22478 1Z" stroke="black" stroke-width="1.5" stroke-linecap="round" stroke-linejoin="round"/>
<path d="M6 4H12" stroke="black" stroke-width="1.5" stroke-linecap="round" stroke-linejoin="round"/>
</g>
</svg>
